<svg xmlns="http://www.w3.org/2000/svg" width="256" height="256" viewBox="0 0 256 256">
  <defs>
    <!-- Золото -->
    <linearGradient id="gold" x1="0" y1="0" x2="1" y2="1">
      <stop offset="0" stop-color="#fff6c7"/>
      <stop offset="0.25" stop-color="#ffd772"/>
      <stop offset="0.5" stop-color="#f6b93b"/>
      <stop offset="0.75" stop-color="#d59a21"/>
      <stop offset="1" stop-color="#9a6a10"/>
    </linearGradient>
    <!-- Полированное золото для бликов -->
    <linearGradient id="gold2" x1="0" y1="0" x2="0" y2="1">
      <stop offset="0" stop-color="#fff2b0"/>
      <stop offset="0.5" stop-color="#f3c44f"/>
      <stop offset="1" stop-color="#a0751a"/>
    </linearGradient>
    <!-- Тёмный металл -->
    <linearGradient id="steel" x1="0" y1="0" x2="1" y2="1">
      <stop offset="0" stop-color="#3b3b44"/>
      <stop offset="1" stop-color="#1e1e24"/>
    </linearGradient>
    <filter id="shadow" x="-50%" y="-50%" width="200%" height="200%">
      <feDropShadow dx="0" dy="8" stdDeviation="8" flood-color="#000" flood-opacity="0.45"/>
    </filter>
  </defs>

  <!-- Медальон -->
  <circle cx="128" cy="128" r="110" fill="url(#steel)" stroke="url(#gold)" stroke-width="8" filter="url(#shadow)"/>
  <circle cx="128" cy="128" r="100" fill="none" stroke="rgba(255,215,120,.25)" stroke-width="2"/>

  <!-- Скрещённые мечи -->
  <g transform="translate(128 138) rotate(8)">
    <g transform="translate(-128 -138)">
      <g transform="rotate(-45 128 138)">
        <rect x="120" y="60" width="16" height="120" rx="8" fill="url(#gold2)"/>
        <path d="M128 44 L144 60 L112 60 Z" fill="url(#gold)" />
        <rect x="118" y="182" width="20" height="18" rx="4" fill="url(#steel)" stroke="url(#gold)" stroke-width="2"/>
      </g>
      <g transform="rotate(45 128 138)">
        <rect x="120" y="60" width="16" height="120" rx="8" fill="url(#gold2)"/>
        <path d="M128 44 L144 60 L112 60 Z" fill="url(#gold)" />
        <rect x="118" y="182" width="20" height="18" rx="4" fill="url(#steel)" stroke="url(#gold)" stroke-width="2"/>
      </g>
    </g>
  </g>

  <!-- Щит -->
  <path d="M128 76c30 0 54-10 54-10v56c0 38-24 74-54 88-30-14-54-50-54-88V66s24 10 54 10z"
        fill="url(#steel)" stroke="url(#gold)" stroke-width="6" filter="url(#shadow)"/>
  <!-- Блик щита -->
  <path d="M96 84c18 6 31 8 32 8 1 0 14-2 32-8v24c0 28-14 53-32 66-18-13-32-38-32-66V84z"
        fill="url(#gold)" opacity="0.22"/>

  <!-- Лавровый венок -->
  <g fill="url(#gold2)" stroke="#7a5415" stroke-width="1.2" opacity="0.95">
    <!-- левая -->
    <path d="M60 132c-10 10-16 22-18 34 12-8 22-16 30-26-8 2-12-1-12-8z"/>
    <path d="M68 116c-8 10-12 18-14 28 10-6 18-14 24-22-7 1-10-1-10-6z"/>
    <path d="M78 104c-6 8-10 14-10 22 8-4 14-10 18-16-6 1-8 0-8-6z"/>
    <!-- правая -->
    <path d="M196 132c10 10 16 22 18 34-12-8-22-16-30-26 8 2 12-1 12-8z"/>
    <path d="M188 116c8 10 12 18 14 28-10-6-18-14-24-22 7 1 10-1 10-6z"/>
    <path d="M178 104c6 8 10 14 10 22-8-4-14-10-18-16 6 1 8 0 8-6z"/>
  </g>

  <!-- Корона -->
  <path d="M90 84l16 10 22-16 22 16 16-10v16H90z" fill="url(#gold)" stroke="#7a5415" stroke-width="1.5"/>

  <!-- Буква A -->
  <path d="M128 96l28 64h-16l-6-14h-12l-6 14h-16l28-64zm-6 34h12l-6-14-6 14z"
        fill="url(#gold2)" stroke="#6e4f16" stroke-width="1.2"/>
</svg>
